<?xml version="1.0" standalone="no"?>
<!DOCTYPE svg PUBLIC "-//W3C//DTD SVG 20010904//EN"
 "http://www.w3.org/TR/2001/REC-SVG-20010904/DTD/svg10.dtd">
<svg version="1.0" xmlns="http://www.w3.org/2000/svg"
 width="481.000000pt" height="283.000000pt" viewBox="0 0 481.000000 283.000000"
 preserveAspectRatio="xMidYMid meet">

<g transform="translate(0.000000,283.000000) scale(0.100000,-0.100000)"
fill="#000000" stroke="none">
<path d="M2225 2794 c-16 -2 -73 -9 -125 -15 -283 -32 -628 -137 -896 -272
-348 -176 -687 -478 -897 -797 -360 -550 -366 -1146 -16 -1475 103 -97 209
-156 354 -197 l80 -23 1645 -3 c1148 -2 1670 0 1729 8 165 22 311 93 438 213
116 111 194 243 239 407 26 93 26 371 1 490 -36 169 -119 375 -213 533 -115
191 -342 447 -524 588 -346 270 -767 447 -1246 525 -94 15 -498 28 -569 18z
m410 -184 c775 -72 1465 -489 1796 -1087 130 -235 189 -437 189 -643 -1 -322
-171 -569 -460 -666 -53 -18 -127 -19 -1675 -22 -1092 -2 -1646 1 -1700 8
-111 14 -192 43 -278 99 -133 87 -233 232 -273 396 -25 101 -23 284 4 401 42
183 115 352 229 524 180 272 401 482 685 652 303 181 705 309 1073 341 91 8
307 6 410 -3z"/>
<path d="M1970 2434 c-144 -38 -286 -132 -373 -247 -85 -112 -127 -209 -158
-370 -52 -270 -23 -669 64 -877 l31 -75 8 40 c4 22 19 103 33 180 89 485 256
932 471 1257 l71 108 -46 -1 c-25 0 -71 -7 -101 -15z"/>
<path d="M2480 2434 c-205 -44 -362 -195 -468 -451 -118 -285 -157 -628 -98
-857 22 -85 71 -195 81 -184 2 2 16 58 30 123 107 499 305 980 531 1286 35 48
64 89 64 93 0 10 -70 5 -140 -10z"/>
<path d="M2888 2350 c-202 -35 -352 -224 -472 -592 -65 -197 -90 -337 -90
-488 0 -69 5 -136 11 -150 9 -23 17 -10 101 155 210 417 458 767 682 965 44
38 75 72 71 75 -17 10 -137 33 -196 38 -33 3 -81 2 -107 -3z"/>
<path d="M3274 2161 c-161 -136 -335 -372 -426 -577 -30 -67 -61 -177 -56
-199 2 -9 55 27 148 102 160 128 469 359 628 472 56 39 102 76 102 80 0 4 -14
27 -30 50 -52 72 -170 131 -260 131 -30 0 -49 -11 -106 -59z"/>
<path d="M1232 2135 c-195 -147 -315 -412 -329 -725 -10 -236 26 -479 98 -659
33 -82 105 -205 139 -236 l21 -19 -8 100 c-4 54 -8 214 -7 354 1 351 30 591
123 1024 23 104 41 193 41 198 0 16 -19 7 -78 -37z"/>
<path d="M3760 1845 c-197 -50 -499 -233 -675 -409 -71 -71 -170 -204 -144
-194 360 143 697 301 851 400 123 79 189 162 154 196 -21 21 -117 25 -186 7z"/>
<path d="M3894 1470 c-131 -29 -261 -76 -390 -140 -171 -85 -173 -90 -36 -90
269 0 613 79 709 163 18 16 33 36 33 44 0 43 -170 56 -316 23z"/>
</g>
</svg>
